<svg xmlns="http://www.w3.org/2000/svg" xmlns:xlink="http://www.w3.org/1999/xlink" preserveAspectRatio="xMidYMid" width="22" height="18" viewBox="0 0 22 18">
  <defs>
    <style>
      .cls-1, .cls-2 {
        fill: #fff;
      }

      .cls-2 {
        fill-rule: evenodd;
      }
    </style>
  </defs>
  <g>
    <rect width="22" height="2.25" rx="0.875" ry="0.875" class="cls-1"/>
    <path d="M0.875,7.875 L21.125,7.875 C21.608,7.875 22.000,8.267 22.000,8.750 L22.000,9.250 C22.000,9.733 21.608,10.125 21.125,10.125 L0.875,10.125 C0.392,10.125 -0.000,9.733 -0.000,9.250 L-0.000,8.750 C-0.000,8.267 0.392,7.875 0.875,7.875 Z" class="cls-2"/>
    <path d="M8.575,15.750 L21.125,15.750 C21.608,15.750 22.000,16.142 22.000,16.625 L22.000,17.125 C22.000,17.608 21.608,18.000 21.125,18.000 L8.575,18.000 C8.092,18.000 7.700,17.608 7.700,17.125 L7.700,16.625 C7.700,16.142 8.092,15.750 8.575,15.750 Z" class="cls-2"/>
    <path d="M0.875,15.750 L3.525,15.750 C4.008,15.750 4.400,16.142 4.400,16.625 L4.400,17.125 C4.400,17.608 4.008,18.000 3.525,18.000 L0.875,18.000 C0.392,18.000 -0.000,17.608 -0.000,17.125 L-0.000,16.625 C-0.000,16.142 0.392,15.750 0.875,15.750 Z" class="cls-2"/>
  </g>
</svg>
