<svg xmlns="http://www.w3.org/2000/svg" xmlns:xlink="http://www.w3.org/1999/xlink" preserveAspectRatio="xMidYMid" width="17" height="18" viewBox="0 0 17 18">
  <defs>
    <style>
      .cls-1 {
        fill: #fff;
        fill-rule: evenodd;
      }
    </style>
  </defs>
  <g>
    <path d="M10.411,8.985 L16.601,2.432 C17.134,1.868 17.134,0.955 16.601,0.392 C16.070,-0.171 15.206,-0.171 14.674,0.392 L8.484,6.945 L2.294,0.392 C1.762,-0.171 0.899,-0.171 0.367,0.392 C-0.165,0.955 -0.165,1.868 0.367,2.432 L6.557,8.985 L0.367,15.537 C-0.165,16.101 -0.165,17.014 0.367,17.577 C0.633,17.859 0.982,18.000 1.330,18.000 C1.679,18.000 2.028,17.859 2.294,17.577 L8.484,11.024 " class="cls-1"/>
    <path d="M9.909,12.530 L14.674,17.577 C14.940,17.859 15.289,18.000 15.638,18.000 C15.987,18.000 16.335,17.859 16.601,17.577 C17.134,17.014 17.134,16.101 16.601,15.537 L11.836,10.490 " class="cls-1"/>
  </g>
</svg>
