<svg xmlns="http://www.w3.org/2000/svg" xmlns:xlink="http://www.w3.org/1999/xlink" preserveAspectRatio="xMidYMid" width="1016.813" height="506.12" viewBox="0 0 1016.813 506.12">
  <defs>
    <style>
      .cls-1 {
        fill: #fff;
        opacity: 0.1;
        fill-rule: evenodd;
      }
    </style>
  </defs>
  <g>
    <path d="M458.479,281.733 L334.736,369.469 C325.874,375.752 313.599,373.726 307.362,364.951 L250.392,284.797 C244.160,276.029 246.293,263.785 255.154,257.502 L378.898,169.766 C387.753,163.487 400.030,165.514 406.262,174.282 L463.232,254.436 C469.469,263.211 467.334,275.454 458.479,281.733 ZM316.196,348.551 L330.256,288.448 L268.811,281.883 L316.196,348.551 ZM390.750,182.754 C389.987,182.617 389.171,182.772 388.487,183.257 L264.743,270.994 C264.059,271.479 263.642,272.200 263.518,272.966 L367.060,284.027 L390.750,182.754 ZM397.432,190.689 L383.374,250.786 L444.816,257.356 L397.432,190.689 ZM381.468,258.934 L374.329,289.454 C374.090,290.485 373.480,291.344 372.669,291.919 C371.857,292.495 370.844,292.787 369.791,292.671 L338.587,289.338 L322.875,356.480 C323.641,356.618 324.462,356.463 325.146,355.978 L448.890,268.241 C449.573,267.757 449.988,267.039 450.110,266.275 L381.468,258.934 Z" class="cls-1"/>
    <path d="M564.832,439.247 L482.182,445.087 C476.263,445.505 471.109,441.061 470.688,435.176 L466.846,381.422 C466.426,375.542 470.896,370.417 476.815,369.998 L559.465,364.159 C565.380,363.741 570.534,368.186 570.955,374.066 L574.797,427.820 C575.217,433.705 570.747,438.829 564.832,439.247 ZM521.515,414.287 L561.311,373.615 C560.994,373.334 560.569,373.174 560.112,373.206 L477.461,379.046 C477.005,379.078 476.607,379.298 476.332,379.622 L521.515,414.287 ZM562.178,379.233 L538.562,403.368 L565.373,423.942 L562.178,379.233 ZM481.535,436.039 L564.186,430.199 C564.642,430.167 565.038,429.948 565.311,429.625 L535.360,406.641 L523.367,418.898 C522.963,419.312 522.435,419.541 521.893,419.579 C521.350,419.617 520.795,419.466 520.336,419.112 L506.719,408.664 L480.332,435.627 C480.651,435.910 481.078,436.072 481.535,436.039 ZM503.084,405.875 L476.270,385.303 L479.465,430.013 L503.084,405.875 Z" class="cls-1"/>
    <path d="M822.663,448.185 L801.929,482.330 C799.660,486.068 794.765,487.245 791.018,484.956 L738.656,452.970 C734.906,450.680 733.703,445.778 735.973,442.040 L756.706,407.895 C758.974,404.160 763.868,402.983 767.618,405.273 L819.980,437.259 C823.727,439.548 824.930,444.450 822.663,448.185 ZM775.591,451.253 L817.037,443.769 C816.966,443.462 816.780,443.183 816.490,443.006 L764.128,411.021 C763.838,410.844 763.504,410.806 763.200,410.883 L775.591,451.253 ZM797.908,475.936 L815.152,447.537 L790.556,451.979 L797.908,475.936 ZM742.146,447.223 L794.508,479.208 C794.797,479.385 795.130,479.422 795.434,479.345 L787.222,452.581 L774.731,454.837 C774.309,454.914 773.893,454.825 773.550,454.615 C773.206,454.405 772.936,454.075 772.811,453.664 L769.076,441.497 L741.599,446.457 C741.669,446.765 741.856,447.046 742.146,447.223 ZM743.481,442.691 L768.080,438.249 L760.726,414.291 L743.481,442.691 Z" class="cls-1"/>
    <path d="M1009.429,472.759 L926.008,505.328 C920.034,507.661 913.278,504.725 910.943,498.781 L889.609,444.490 C887.276,438.551 890.234,431.822 896.208,429.490 L979.629,396.921 C985.598,394.590 992.355,397.527 994.689,403.465 L1016.022,457.756 C1018.357,463.700 1015.398,470.429 1009.429,472.759 ZM918.333,490.630 L934.913,458.114 L900.590,445.473 L918.333,490.630 ZM984.589,406.096 C984.171,405.907 983.680,405.879 983.220,406.059 L899.798,438.628 C899.337,438.808 898.998,439.163 898.818,439.585 L956.654,460.885 L984.589,406.096 ZM987.299,411.621 L970.722,444.133 L1005.042,456.776 L987.299,411.621 ZM968.474,448.542 L960.056,465.053 C959.773,465.611 959.302,466.017 958.754,466.230 C958.207,466.444 957.584,466.465 956.997,466.247 L939.566,459.828 L921.043,496.151 C921.463,496.340 921.955,496.370 922.417,496.190 L1005.838,463.621 C1006.298,463.441 1006.636,463.088 1006.814,462.666 L968.474,448.542 Z" class="cls-1"/>
    <path d="M146.130,132.148 L115.223,191.242 C111.840,197.711 103.832,200.191 97.371,196.774 L7.082,149.030 C0.617,145.611 -1.889,137.571 1.494,131.102 L32.401,72.008 C35.781,65.544 43.790,63.063 50.255,66.482 L140.543,114.227 C147.004,117.643 149.511,125.684 146.130,132.148 ZM68.257,142.252 L136.328,125.386 C136.179,124.883 135.840,124.437 135.341,124.173 L45.053,76.429 C44.554,76.165 43.994,76.134 43.496,76.295 L68.257,142.252 ZM133.587,131.865 L93.191,141.874 L107.881,181.015 L133.587,131.865 ZM12.284,139.083 L102.573,186.828 C103.071,187.091 103.629,187.121 104.125,186.959 L87.714,143.231 L67.200,148.315 C66.507,148.488 65.806,148.384 65.214,148.071 C64.621,147.757 64.139,147.235 63.889,146.564 L56.427,126.686 L11.294,137.865 C11.443,138.371 11.785,138.819 12.284,139.083 ZM14.034,131.389 L54.434,121.380 L39.740,82.238 L14.034,131.389 Z" class="cls-1"/>
    <path d="M420.228,70.467 L345.535,127.403 C340.186,131.480 332.515,130.465 328.430,125.139 L291.111,76.487 C287.029,71.165 288.056,63.519 293.404,59.442 L368.098,2.506 C373.443,-1.569 381.114,-0.553 385.197,4.769 L422.515,53.421 C426.601,58.747 425.573,66.393 420.228,70.467 ZM333.516,114.779 L340.784,77.174 L302.476,74.313 L333.516,114.779 ZM375.771,10.340 C375.295,10.270 374.792,10.380 374.379,10.695 L299.686,67.631 C299.273,67.945 299.034,68.401 298.976,68.880 L363.526,73.701 L375.771,10.340 ZM380.113,15.133 L372.846,52.734 L411.152,55.598 L380.113,15.133 ZM371.861,57.832 L368.171,76.927 C368.047,77.572 367.690,78.117 367.200,78.491 C366.710,78.865 366.088,79.066 365.432,79.015 L345.977,77.562 L337.856,119.568 C338.335,119.638 338.840,119.529 339.253,119.214 L413.947,62.278 C414.359,61.964 414.597,61.509 414.654,61.032 L371.861,57.832 Z" class="cls-1"/>
  </g>
</svg>
