<svg xmlns="http://www.w3.org/2000/svg" width="296.31" height="309.156" viewBox="0 0 296.31 309.156" id="svg-1">
  <defs id="defs-2">
    <style id="style-3">
	.cls-1 { fill-rule: evenodd; }
</style>
  </defs>
  <path id="_01.svg" data-name="01.svg" class="cls-1" d="M1458.04,397.543l-60.45,171.722a12.72,12.72,0,0,1-6.28,7.18l-93.51,46.792a11.91,11.91,0,0,1-9.3.619l-118.03-41.547a12.321,12.321,0,0,1-7.26-15.841l85.41-242.641a12.316,12.316,0,0,1,15.58-7.8L1450.78,381.7A12.321,12.321,0,0,1,1458.04,397.543Zm-95.81,165.914-40.97-14.42-14.92,42.385Zm-94.92-219.768-77.09,219,100.89,35.515,20.81-59.1a6.149,6.149,0,0,1,7.79-3.9l57.12,20.106,54.2-153.992Zm85.5,134.726-24.99-8.8-9.1,25.855a12.119,12.119,0,1,1-22.85-8.042l9.11-25.856-24.99-8.8a12.538,12.538,0,0,1,8.32-23.64l24.99,8.8,9.1-25.856a12.119,12.119,0,1,1,22.85,8.042l-9.11,25.856,24.99,8.8A12.538,12.538,0,0,1,1352.81,478.415Z" transform="translate(-1162.47 -315.344)" fill="#f9f9f9" fill-opacity="1" type="solidColor"></path>
</svg>